<svg width="402" height="422" viewBox="0 0 402 422" fill="none" xmlns="http://www.w3.org/2000/svg">
  <path d="M0 143.134V129.802L81.6 88.7339L136 228.134L52.7 250.234L0 143.134Z" fill="#3F3D56" />
  <path
    d="M137.5 231.655L80.848 96.3179L76.534 98.3469L74.848 94.3179L3.5 132.433L3.582 132.65L3 132.924L8.99802 147.018L48.932 252.95L53.528 251.653L54.932 254.95L137.5 231.655Z"
    fill="#E69E19" />
  <path opacity="0.1" d="M54.932 253.95L137.5 230.655L80.847 95.3179L3 131.924L54.932 253.95Z" fill="black" />
  <path
    d="M99.8768 214.301C98.7563 213.764 97.8009 212.935 97.111 211.902C96.421 210.868 96.0218 209.668 95.9554 208.427L95.186 193.863C95.0911 192.031 95.7268 190.237 96.9534 188.873C98.18 187.51 99.8974 186.689 101.729 186.59L223.121 180.177C224.952 180.082 226.747 180.718 228.11 181.945C229.474 183.171 230.295 184.888 230.393 186.72L231.163 201.285C231.258 203.116 230.622 204.91 229.395 206.274C228.169 207.637 226.452 208.458 224.62 208.557L103.228 214.97C102.072 215.033 100.92 214.802 99.8768 214.301Z"
    fill="#E69E19" />
  <path
    d="M183.559 214.586C182.378 214.015 181.383 213.121 180.69 212.007C179.996 210.893 179.633 209.606 179.641 208.294L179.498 180.872C179.504 179.963 179.69 179.064 180.044 178.227C180.398 177.39 180.914 176.631 181.562 175.993C182.21 175.356 182.977 174.852 183.819 174.511C184.662 174.17 185.563 173.998 186.472 174.006L241.851 178.888C243.317 178.897 245.168 181.168 246.655 182.991C247.122 183.564 247.525 184.058 247.82 184.357C247.949 184.488 248.072 184.624 248.189 184.763C249.247 186.024 249.82 187.62 249.805 189.266L249.684 203.85C249.666 205.684 248.922 207.436 247.614 208.722C246.307 210.008 244.543 210.723 242.709 210.71L186.544 215.268C185.511 215.264 184.491 215.032 183.559 214.586Z"
    fill="#2F2E41" />
  <path
    d="M228.504 138.498C257.713 138.498 281.391 114.819 281.391 85.6105C281.391 56.4016 257.713 32.7231 228.504 32.7231C199.295 32.7231 175.616 56.4016 175.616 85.6105C175.616 114.819 199.295 138.498 228.504 138.498Z"
    fill="#E69E19" />
  <path
    d="M218.194 421.444H203.609C201.775 421.442 200.017 420.713 198.72 419.416C197.423 418.119 196.694 416.361 196.692 414.527V290.989C196.694 289.155 197.423 287.397 198.72 286.1C200.017 284.803 201.775 284.074 203.609 284.072H218.194C220.028 284.074 221.786 284.803 223.083 286.1C224.38 287.397 225.11 289.155 225.112 290.989V414.527C225.11 416.361 224.38 418.119 223.083 419.416C221.786 420.713 220.028 421.442 218.194 421.444Z"
    fill="#E69E19" />
  <path
    d="M256.666 421.444H242.081C240.247 421.442 238.488 420.713 237.192 419.416C235.895 418.119 235.165 416.361 235.163 414.527V290.989C235.165 289.155 235.895 287.397 237.192 286.1C238.488 284.803 240.247 284.074 242.081 284.072H256.666C258.5 284.074 260.258 284.803 261.555 286.1C262.852 287.397 263.581 289.155 263.583 290.989V414.527C263.581 416.361 262.852 418.119 261.555 419.416C260.258 420.713 258.5 421.442 256.666 421.444Z"
    fill="#E69E19" />
  <path
    d="M199.125 105.212L199.07 103.236C202.747 103.134 205.989 102.903 208.424 101.123C209.115 100.59 209.682 99.9146 210.089 99.1424C210.495 98.3703 210.73 97.5197 210.778 96.6486C210.82 96.1163 210.74 95.5813 210.542 95.0852C210.345 94.5891 210.035 94.1453 209.638 93.7882C208.021 92.4227 205.42 92.8647 203.523 93.7342L201.888 94.484L205.024 71.5674L206.982 71.8357L204.315 91.3293C206.891 90.5718 209.279 90.898 210.914 92.2789C211.542 92.8271 212.035 93.513 212.354 94.2831C212.672 95.0532 212.809 95.8865 212.753 96.7181C212.695 97.8885 212.382 99.0322 211.836 100.069C211.289 101.106 210.523 102.01 209.59 102.72C206.461 105.007 202.393 105.121 199.125 105.212Z"
    fill="#2F2E41" />
  <path d="M227.31 73.5167H216.666V75.4931H227.31V73.5167Z" fill="#2F2E41" />
  <path d="M193.711 73.5167H183.067V75.4931H193.711V73.5167Z" fill="#2F2E41" />
  <path
    d="M288.757 261.74L239.943 164.397H240.631C242.334 164.395 243.967 163.717 245.171 162.513C246.375 161.309 247.052 159.676 247.054 157.974V155.997C247.052 154.294 246.375 152.662 245.171 151.457C243.967 150.253 242.334 149.576 240.631 149.574H218.891C217.188 149.576 215.555 150.253 214.351 151.457C213.147 152.662 212.469 154.294 212.468 155.997V157.974C212.472 159.545 213.054 161.059 214.102 162.229C215.15 163.4 216.592 164.145 218.153 164.322L169.197 261.793C166.869 266.429 165.766 271.583 165.992 276.765C166.218 281.948 167.766 286.986 170.489 291.401C173.213 295.816 177.02 299.461 181.55 301.989C186.079 304.517 191.18 305.844 196.368 305.844H261.536C266.73 305.844 271.837 304.516 276.373 301.985C280.909 299.454 284.722 295.806 287.45 291.386C290.178 286.966 291.73 281.922 291.959 276.733C292.188 271.544 291.086 266.383 288.757 261.74Z"
    fill="#2F2E41" />
  <path
    d="M220.544 51.4556C207.784 60.2122 188.187 55.3845 182.403 40.5899C180.992 36.99 180.362 33.1311 180.556 29.2692C180.75 25.4073 181.763 21.6308 183.528 18.1904C187.53 10.6726 195.282 6.16071 203.437 4.47009C214.379 2.20185 225.692 5.24699 235.694 9.66983C236.054 9.85795 236.464 9.93091 236.867 9.87886C237.271 9.82681 237.648 9.65225 237.949 9.37875C247.503 1.76254 261.383 5.0694 271.178 10.3932C281.771 16.3421 290.73 24.8173 297.257 35.0648C303.914 45.2251 308.073 56.8155 309.395 68.8897C310.606 81.9386 308.474 95.0808 303.203 107.079C297.931 119.076 289.692 129.535 279.262 137.469C277.366 138.888 279.22 142.121 281.141 140.684C302.233 124.904 314.876 98.5723 313.38 72.1812C311.922 46.4451 297.212 21.6487 275.075 8.33426C263.326 1.26731 246.951 -2.52941 235.317 6.74621L237.573 6.45514C227.569 2.03142 216.609 -1.09125 205.585 0.359432C196.221 1.59166 187.02 6.08193 181.651 14.0791C179.293 17.7495 177.746 21.8813 177.113 26.1979C176.481 30.5146 176.778 34.9165 177.985 39.1091C179.162 43.2532 181.285 47.0673 184.188 50.2506C187.091 53.4338 190.693 55.8991 194.712 57.4521C203.662 61.004 214.43 60.1552 222.423 54.6704C224.386 53.3231 222.526 50.0951 220.544 51.4556Z"
    fill="#2F2E41" />
  <path
    d="M154.5 249.655L97.848 114.318L93.181 115.505L91.848 112.318L5.5 137.433L5.629 137.764L5 137.924L11.074 151.728L50.932 253.95L55.91 253.629L56.932 255.95L154.5 249.655Z"
    fill="#E69E19" />
  <path d="M56.1 270.634L155.5 249.433L100.3 117.634L0 143.134L56.1 270.634Z" fill="#3F3D56" />
  <path
    d="M66.5 186.433C76.9934 186.433 85.5 177.926 85.5 167.433C85.5 156.939 76.9934 148.433 66.5 148.433C56.0066 148.433 47.5 156.939 47.5 167.433C47.5 177.926 56.0066 186.433 66.5 186.433Z"
    fill="white" />
  <path
    d="M219.93 191.819C220.649 191.853 221.357 191.999 222.031 192.25C222.884 192.564 223.666 193.044 224.332 193.662C224.998 194.28 225.535 195.024 225.911 195.851L231.985 209.111C232.747 210.779 232.816 212.681 232.177 214.4C231.538 216.119 230.243 217.515 228.576 218.28L118.057 268.902C116.388 269.664 114.486 269.733 112.767 269.094C111.048 268.455 109.653 267.16 108.887 265.494L102.814 252.234C102.051 250.565 101.982 248.663 102.621 246.944C103.26 245.225 104.555 243.83 106.222 243.064L216.741 192.442C217.739 191.983 218.833 191.769 219.93 191.819Z"
    fill="#E69E19" />
  <path
    d="M222.022 188.777C223.306 188.837 224.548 189.253 225.61 189.977C226.671 190.702 227.511 191.707 228.034 192.881L233.964 206.206C234.635 207.709 234.746 209.402 234.279 210.979C234.227 211.153 234.169 211.327 234.103 211.499C233.952 211.891 233.78 212.505 233.58 213.215C232.944 215.481 232.152 218.301 230.777 218.912L182.015 245.45C181.184 245.826 180.288 246.033 179.376 246.061C178.465 246.089 177.557 245.936 176.705 245.612C175.853 245.288 175.074 244.798 174.412 244.171C173.75 243.545 173.218 242.793 172.848 241.96L162.033 216.746C161.291 215.07 161.243 213.168 161.901 211.457C162.559 209.746 163.869 208.366 165.542 207.619L218.943 189.358C219.91 188.926 220.964 188.728 222.022 188.777Z"
    fill="#2F2E41" />
  <path
    d="M400.937 421.433H19.937C19.6718 421.433 19.4175 421.327 19.2299 421.14C19.0424 420.952 18.937 420.698 18.937 420.433C18.937 420.168 19.0424 419.913 19.2299 419.726C19.4175 419.538 19.6718 419.433 19.937 419.433H400.937C401.202 419.433 401.457 419.538 401.644 419.726C401.832 419.913 401.937 420.168 401.937 420.433C401.937 420.698 401.832 420.952 401.644 421.14C401.457 421.327 401.202 421.433 400.937 421.433Z"
    fill="#3F3D56" />
</svg>